<?xml version="1.0" encoding="utf-8" standalone="no"?>
<!DOCTYPE svg PUBLIC "-//W3C//DTD SVG 1.1//EN"
  "http://www.w3.org/Graphics/SVG/1.1/DTD/svg11.dtd">
<svg height="357.238125pt" version="1.1" viewBox="0 0 370.942187 357.238125" width="370.942187pt" xmlns="http://www.w3.org/2000/svg" xmlns:xlink="http://www.w3.org/1999/xlink">
 <metadata>
  <rdf:RDF xmlns:cc="http://creativecommons.org/ns#" xmlns:dc="http://purl.org/dc/elements/1.1/" xmlns:rdf="http://www.w3.org/1999/02/22-rdf-syntax-ns#">
   <cc:Work>
    <dc:type rdf:resource="http://purl.org/dc/dcmitype/StillImage"/>
    <dc:date>2021-10-20T09:23:53.178109</dc:date>
    <dc:format>image/svg+xml</dc:format>
    <dc:creator>
     <cc:Agent>
      <dc:title>Matplotlib v3.4.2, https://matplotlib.org/</dc:title>
     </cc:Agent>
    </dc:creator>
   </cc:Work>
  </rdf:RDF>
 </metadata>
 <defs>
  <style type="text/css">*{stroke-linecap:butt;stroke-linejoin:round;}</style>
 </defs>
 <g id="figure_1">
  <g id="patch_1">
   <path d="M 0 357.238125 
L 370.942187 357.238125 
L 370.942187 0 
L 0 0 
z
" style="fill:none;"/>
  </g>
  <g id="axes_1">
   <g id="patch_2">
    <path d="M 28.942188 333.36 
L 363.742188 333.36 
L 363.742188 7.2 
L 28.942188 7.2 
z
" style="fill:#ffffff;"/>
   </g>
   <g id="PathCollection_1">
    <defs>
     <path d="M -3 0 
L 3 0 
M 0 3 
L 0 -3 
" id="ma0548fc6f0" style="stroke:#1f77b4;stroke-width:1.5;"/>
    </defs>
    <g clip-path="url(#pb4a9f2cfc5)">
     <use style="fill:#1f77b4;stroke:#1f77b4;stroke-width:1.5;" x="161.696532" xlink:href="#ma0548fc6f0" y="221.734801"/>
     <use style="fill:#1f77b4;stroke:#1f77b4;stroke-width:1.5;" x="221.859549" xlink:href="#ma0548fc6f0" y="171.641517"/>
     <use style="fill:#1f77b4;stroke:#1f77b4;stroke-width:1.5;" x="141.568563" xlink:href="#ma0548fc6f0" y="192.915355"/>
     <use style="fill:#1f77b4;stroke:#1f77b4;stroke-width:1.5;" x="111.931887" xlink:href="#ma0548fc6f0" y="163.994065"/>
     <use style="fill:#1f77b4;stroke:#1f77b4;stroke-width:1.5;" x="207.984692" xlink:href="#ma0548fc6f0" y="255.368381"/>
     <use style="fill:#1f77b4;stroke:#1f77b4;stroke-width:1.5;" x="101.94422" xlink:href="#ma0548fc6f0" y="131.819357"/>
     <use style="fill:#1f77b4;stroke:#1f77b4;stroke-width:1.5;" x="249.984689" xlink:href="#ma0548fc6f0" y="269.15933"/>
     <use style="fill:#1f77b4;stroke:#1f77b4;stroke-width:1.5;" x="156.610343" xlink:href="#ma0548fc6f0" y="22.025455"/>
     <use style="fill:#1f77b4;stroke:#1f77b4;stroke-width:1.5;" x="177.400632" xlink:href="#ma0548fc6f0" y="51.578367"/>
     <use style="fill:#1f77b4;stroke:#1f77b4;stroke-width:1.5;" x="170.148243" xlink:href="#ma0548fc6f0" y="263.810455"/>
     <use style="fill:#1f77b4;stroke:#1f77b4;stroke-width:1.5;" x="149.656875" xlink:href="#ma0548fc6f0" y="265.669221"/>
     <use style="fill:#1f77b4;stroke:#1f77b4;stroke-width:1.5;" x="217.741852" xlink:href="#ma0548fc6f0" y="183.310968"/>
     <use style="fill:#1f77b4;stroke:#1f77b4;stroke-width:1.5;" x="160.307637" xlink:href="#ma0548fc6f0" y="211.953447"/>
     <use style="fill:#1f77b4;stroke:#1f77b4;stroke-width:1.5;" x="178.912996" xlink:href="#ma0548fc6f0" y="147.409562"/>
     <use style="fill:#1f77b4;stroke:#1f77b4;stroke-width:1.5;" x="141.416093" xlink:href="#ma0548fc6f0" y="209.193251"/>
     <use style="fill:#1f77b4;stroke:#1f77b4;stroke-width:1.5;" x="220.044443" xlink:href="#ma0548fc6f0" y="229.842344"/>
     <use style="fill:#1f77b4;stroke:#1f77b4;stroke-width:1.5;" x="248.830604" xlink:href="#ma0548fc6f0" y="272.626892"/>
     <use style="fill:#1f77b4;stroke:#1f77b4;stroke-width:1.5;" x="288.413448" xlink:href="#ma0548fc6f0" y="155.969187"/>
     <use style="fill:#1f77b4;stroke:#1f77b4;stroke-width:1.5;" x="155.295418" xlink:href="#ma0548fc6f0" y="229.094725"/>
     <use style="fill:#1f77b4;stroke:#1f77b4;stroke-width:1.5;" x="157.226641" xlink:href="#ma0548fc6f0" y="238.495688"/>
     <use style="fill:#1f77b4;stroke:#1f77b4;stroke-width:1.5;" x="177.669304" xlink:href="#ma0548fc6f0" y="239.276694"/>
     <use style="fill:#1f77b4;stroke:#1f77b4;stroke-width:1.5;" x="217.034699" xlink:href="#ma0548fc6f0" y="222.916863"/>
     <use style="fill:#1f77b4;stroke:#1f77b4;stroke-width:1.5;" x="145.712995" xlink:href="#ma0548fc6f0" y="186.781982"/>
     <use style="fill:#1f77b4;stroke:#1f77b4;stroke-width:1.5;" x="219.969561" xlink:href="#ma0548fc6f0" y="256.705874"/>
     <use style="fill:#1f77b4;stroke:#1f77b4;stroke-width:1.5;" x="234.016966" xlink:href="#ma0548fc6f0" y="268.789078"/>
     <use style="fill:#1f77b4;stroke:#1f77b4;stroke-width:1.5;" x="203.887958" xlink:href="#ma0548fc6f0" y="145.533499"/>
     <use style="fill:#1f77b4;stroke:#1f77b4;stroke-width:1.5;" x="214.064682" xlink:href="#ma0548fc6f0" y="242.056427"/>
     <use style="fill:#1f77b4;stroke:#1f77b4;stroke-width:1.5;" x="174.279729" xlink:href="#ma0548fc6f0" y="284.796819"/>
     <use style="fill:#1f77b4;stroke:#1f77b4;stroke-width:1.5;" x="133.438795" xlink:href="#ma0548fc6f0" y="165.141873"/>
     <use style="fill:#1f77b4;stroke:#1f77b4;stroke-width:1.5;" x="263.16465" xlink:href="#ma0548fc6f0" y="202.269007"/>
     <use style="fill:#1f77b4;stroke:#1f77b4;stroke-width:1.5;" x="163.144515" xlink:href="#ma0548fc6f0" y="224.841582"/>
     <use style="fill:#1f77b4;stroke:#1f77b4;stroke-width:1.5;" x="132.877734" xlink:href="#ma0548fc6f0" y="231.504639"/>
     <use style="fill:#1f77b4;stroke:#1f77b4;stroke-width:1.5;" x="258.910897" xlink:href="#ma0548fc6f0" y="241.171663"/>
     <use style="fill:#1f77b4;stroke:#1f77b4;stroke-width:1.5;" x="178.593561" xlink:href="#ma0548fc6f0" y="257.305759"/>
     <use style="fill:#1f77b4;stroke:#1f77b4;stroke-width:1.5;" x="143.044877" xlink:href="#ma0548fc6f0" y="236.560057"/>
     <use style="fill:#1f77b4;stroke:#1f77b4;stroke-width:1.5;" x="185.106044" xlink:href="#ma0548fc6f0" y="265.458799"/>
     <use style="fill:#1f77b4;stroke:#1f77b4;stroke-width:1.5;" x="162.916039" xlink:href="#ma0548fc6f0" y="267.914872"/>
     <use style="fill:#1f77b4;stroke:#1f77b4;stroke-width:1.5;" x="121.096163" xlink:href="#ma0548fc6f0" y="169.553115"/>
     <use style="fill:#1f77b4;stroke:#1f77b4;stroke-width:1.5;" x="256.534658" xlink:href="#ma0548fc6f0" y="236.717779"/>
     <use style="fill:#1f77b4;stroke:#1f77b4;stroke-width:1.5;" x="234.699094" xlink:href="#ma0548fc6f0" y="172.974696"/>
     <use style="fill:#1f77b4;stroke:#1f77b4;stroke-width:1.5;" x="178.243752" xlink:href="#ma0548fc6f0" y="144.930527"/>
     <use style="fill:#1f77b4;stroke:#1f77b4;stroke-width:1.5;" x="137.85483" xlink:href="#ma0548fc6f0" y="193.020564"/>
     <use style="fill:#1f77b4;stroke:#1f77b4;stroke-width:1.5;" x="231.266857" xlink:href="#ma0548fc6f0" y="184.609152"/>
     <use style="fill:#1f77b4;stroke:#1f77b4;stroke-width:1.5;" x="173.443475" xlink:href="#ma0548fc6f0" y="289.264947"/>
     <use style="fill:#1f77b4;stroke:#1f77b4;stroke-width:1.5;" x="141.065009" xlink:href="#ma0548fc6f0" y="213.481121"/>
     <use style="fill:#1f77b4;stroke:#1f77b4;stroke-width:1.5;" x="187.896826" xlink:href="#ma0548fc6f0" y="200.225979"/>
     <use style="fill:#1f77b4;stroke:#1f77b4;stroke-width:1.5;" x="148.906994" xlink:href="#ma0548fc6f0" y="224.162327"/>
     <use style="fill:#1f77b4;stroke:#1f77b4;stroke-width:1.5;" x="236.198332" xlink:href="#ma0548fc6f0" y="143.792488"/>
     <use style="fill:#1f77b4;stroke:#1f77b4;stroke-width:1.5;" x="195.884291" xlink:href="#ma0548fc6f0" y="168.189441"/>
     <use style="fill:#1f77b4;stroke:#1f77b4;stroke-width:1.5;" x="221.750109" xlink:href="#ma0548fc6f0" y="157.858144"/>
     <use style="fill:#1f77b4;stroke:#1f77b4;stroke-width:1.5;" x="231.656721" xlink:href="#ma0548fc6f0" y="256.687105"/>
     <use style="fill:#1f77b4;stroke:#1f77b4;stroke-width:1.5;" x="233.774464" xlink:href="#ma0548fc6f0" y="185.704043"/>
     <use style="fill:#1f77b4;stroke:#1f77b4;stroke-width:1.5;" x="220.13008" xlink:href="#ma0548fc6f0" y="232.845946"/>
     <use style="fill:#1f77b4;stroke:#1f77b4;stroke-width:1.5;" x="240.506893" xlink:href="#ma0548fc6f0" y="262.666509"/>
     <use style="fill:#1f77b4;stroke:#1f77b4;stroke-width:1.5;" x="152.783621" xlink:href="#ma0548fc6f0" y="208.725425"/>
     <use style="fill:#1f77b4;stroke:#1f77b4;stroke-width:1.5;" x="164.28343" xlink:href="#ma0548fc6f0" y="229.68397"/>
     <use style="fill:#1f77b4;stroke:#1f77b4;stroke-width:1.5;" x="158.565898" xlink:href="#ma0548fc6f0" y="198.619016"/>
     <use style="fill:#1f77b4;stroke:#1f77b4;stroke-width:1.5;" x="141.740679" xlink:href="#ma0548fc6f0" y="223.760734"/>
     <use style="fill:#1f77b4;stroke:#1f77b4;stroke-width:1.5;" x="133.792713" xlink:href="#ma0548fc6f0" y="175.194489"/>
     <use style="fill:#1f77b4;stroke:#1f77b4;stroke-width:1.5;" x="210.247192" xlink:href="#ma0548fc6f0" y="198.032941"/>
     <use style="fill:#1f77b4;stroke:#1f77b4;stroke-width:1.5;" x="147.530445" xlink:href="#ma0548fc6f0" y="213.754199"/>
     <use style="fill:#1f77b4;stroke:#1f77b4;stroke-width:1.5;" x="163.499431" xlink:href="#ma0548fc6f0" y="204.5739"/>
     <use style="fill:#1f77b4;stroke:#1f77b4;stroke-width:1.5;" x="124.660305" xlink:href="#ma0548fc6f0" y="197.463578"/>
     <use style="fill:#1f77b4;stroke:#1f77b4;stroke-width:1.5;" x="149.740982" xlink:href="#ma0548fc6f0" y="193.002263"/>
     <use style="fill:#1f77b4;stroke:#1f77b4;stroke-width:1.5;" x="275.32193" xlink:href="#ma0548fc6f0" y="245.162286"/>
     <use style="fill:#1f77b4;stroke:#1f77b4;stroke-width:1.5;" x="212.868905" xlink:href="#ma0548fc6f0" y="182.135662"/>
     <use style="fill:#1f77b4;stroke:#1f77b4;stroke-width:1.5;" x="212.684225" xlink:href="#ma0548fc6f0" y="318.534545"/>
     <use style="fill:#1f77b4;stroke:#1f77b4;stroke-width:1.5;" x="131.414194" xlink:href="#ma0548fc6f0" y="181.707785"/>
     <use style="fill:#1f77b4;stroke:#1f77b4;stroke-width:1.5;" x="151.830609" xlink:href="#ma0548fc6f0" y="231.368163"/>
     <use style="fill:#1f77b4;stroke:#1f77b4;stroke-width:1.5;" x="139.214497" xlink:href="#ma0548fc6f0" y="209.512429"/>
     <use style="fill:#1f77b4;stroke:#1f77b4;stroke-width:1.5;" x="221.765936" xlink:href="#ma0548fc6f0" y="149.514766"/>
     <use style="fill:#1f77b4;stroke:#1f77b4;stroke-width:1.5;" x="241.599646" xlink:href="#ma0548fc6f0" y="208.999169"/>
     <use style="fill:#1f77b4;stroke:#1f77b4;stroke-width:1.5;" x="161.08765" xlink:href="#ma0548fc6f0" y="230.281814"/>
     <use style="fill:#1f77b4;stroke:#1f77b4;stroke-width:1.5;" x="146.905124" xlink:href="#ma0548fc6f0" y="266.849777"/>
     <use style="fill:#1f77b4;stroke:#1f77b4;stroke-width:1.5;" x="147.678732" xlink:href="#ma0548fc6f0" y="255.084658"/>
     <use style="fill:#1f77b4;stroke:#1f77b4;stroke-width:1.5;" x="150.405138" xlink:href="#ma0548fc6f0" y="208.681116"/>
     <use style="fill:#1f77b4;stroke:#1f77b4;stroke-width:1.5;" x="145.539545" xlink:href="#ma0548fc6f0" y="227.502611"/>
     <use style="fill:#1f77b4;stroke:#1f77b4;stroke-width:1.5;" x="120.96396" xlink:href="#ma0548fc6f0" y="188.035467"/>
     <use style="fill:#1f77b4;stroke:#1f77b4;stroke-width:1.5;" x="239.39191" xlink:href="#ma0548fc6f0" y="183.013129"/>
     <use style="fill:#1f77b4;stroke:#1f77b4;stroke-width:1.5;" x="130.097562" xlink:href="#ma0548fc6f0" y="212.904057"/>
     <use style="fill:#1f77b4;stroke:#1f77b4;stroke-width:1.5;" x="139.414007" xlink:href="#ma0548fc6f0" y="139.844033"/>
     <use style="fill:#1f77b4;stroke:#1f77b4;stroke-width:1.5;" x="125.776638" xlink:href="#ma0548fc6f0" y="180.469545"/>
     <use style="fill:#1f77b4;stroke:#1f77b4;stroke-width:1.5;" x="272.53066" xlink:href="#ma0548fc6f0" y="233.856355"/>
     <use style="fill:#1f77b4;stroke:#1f77b4;stroke-width:1.5;" x="120.717615" xlink:href="#ma0548fc6f0" y="193.357809"/>
     <use style="fill:#1f77b4;stroke:#1f77b4;stroke-width:1.5;" x="124.20489" xlink:href="#ma0548fc6f0" y="182.926763"/>
     <use style="fill:#1f77b4;stroke:#1f77b4;stroke-width:1.5;" x="108.021266" xlink:href="#ma0548fc6f0" y="149.254758"/>
     <use style="fill:#1f77b4;stroke:#1f77b4;stroke-width:1.5;" x="150.905654" xlink:href="#ma0548fc6f0" y="217.159617"/>
     <use style="fill:#1f77b4;stroke:#1f77b4;stroke-width:1.5;" x="227.954567" xlink:href="#ma0548fc6f0" y="249.181466"/>
     <use style="fill:#1f77b4;stroke:#1f77b4;stroke-width:1.5;" x="246.339034" xlink:href="#ma0548fc6f0" y="212.038607"/>
     <use style="fill:#1f77b4;stroke:#1f77b4;stroke-width:1.5;" x="144.090583" xlink:href="#ma0548fc6f0" y="224.020068"/>
     <use style="fill:#1f77b4;stroke:#1f77b4;stroke-width:1.5;" x="196.481184" xlink:href="#ma0548fc6f0" y="172.908996"/>
     <use style="fill:#1f77b4;stroke:#1f77b4;stroke-width:1.5;" x="231.506198" xlink:href="#ma0548fc6f0" y="176.882607"/>
     <use style="fill:#1f77b4;stroke:#1f77b4;stroke-width:1.5;" x="144.163415" xlink:href="#ma0548fc6f0" y="216.577109"/>
     <use style="fill:#1f77b4;stroke:#1f77b4;stroke-width:1.5;" x="141.891112" xlink:href="#ma0548fc6f0" y="213.616245"/>
     <use style="fill:#1f77b4;stroke:#1f77b4;stroke-width:1.5;" x="127.525432" xlink:href="#ma0548fc6f0" y="177.611451"/>
     <use style="fill:#1f77b4;stroke:#1f77b4;stroke-width:1.5;" x="260.846884" xlink:href="#ma0548fc6f0" y="234.443749"/>
     <use style="fill:#1f77b4;stroke:#1f77b4;stroke-width:1.5;" x="251.656716" xlink:href="#ma0548fc6f0" y="188.975714"/>
     <use style="fill:#1f77b4;stroke:#1f77b4;stroke-width:1.5;" x="226.025763" xlink:href="#ma0548fc6f0" y="161.576293"/>
     <use style="fill:#1f77b4;stroke:#1f77b4;stroke-width:1.5;" x="290.740155" xlink:href="#ma0548fc6f0" y="211.554176"/>
     <use style="fill:#1f77b4;stroke:#1f77b4;stroke-width:1.5;" x="196.342574" xlink:href="#ma0548fc6f0" y="122.196567"/>
    </g>
   </g>
   <g id="matplotlib.axis_1">
    <g id="xtick_1">
     <g id="line2d_1">
      <defs>
       <path d="M 0 0 
L 0 3.5 
" id="m7d14bfa839" style="stroke:#000000;stroke-width:0.8;"/>
      </defs>
      <g>
       <use style="stroke:#000000;stroke-width:0.8;" x="58.928682" xlink:href="#m7d14bfa839" y="333.36"/>
      </g>
     </g>
     <g id="text_1">
      <!-- −3 -->
      <g transform="translate(51.557589 347.958438)scale(0.1 -0.1)">
       <defs>
        <path d="M 678 2272 
L 4684 2272 
L 4684 1741 
L 678 1741 
L 678 2272 
z
" id="DejaVuSans-2212" transform="scale(0.015625)"/>
        <path d="M 2597 2516 
Q 3050 2419 3304 2112 
Q 3559 1806 3559 1356 
Q 3559 666 3084 287 
Q 2609 -91 1734 -91 
Q 1441 -91 1130 -33 
Q 819 25 488 141 
L 488 750 
Q 750 597 1062 519 
Q 1375 441 1716 441 
Q 2309 441 2620 675 
Q 2931 909 2931 1356 
Q 2931 1769 2642 2001 
Q 2353 2234 1838 2234 
L 1294 2234 
L 1294 2753 
L 1863 2753 
Q 2328 2753 2575 2939 
Q 2822 3125 2822 3475 
Q 2822 3834 2567 4026 
Q 2313 4219 1838 4219 
Q 1578 4219 1281 4162 
Q 984 4106 628 3988 
L 628 4550 
Q 988 4650 1302 4700 
Q 1616 4750 1894 4750 
Q 2613 4750 3031 4423 
Q 3450 4097 3450 3541 
Q 3450 3153 3228 2886 
Q 3006 2619 2597 2516 
z
" id="DejaVuSans-33" transform="scale(0.015625)"/>
       </defs>
       <use xlink:href="#DejaVuSans-2212"/>
       <use x="83.789062" xlink:href="#DejaVuSans-33"/>
      </g>
     </g>
    </g>
    <g id="xtick_2">
     <g id="line2d_2">
      <g>
       <use style="stroke:#000000;stroke-width:0.8;" x="100.571795" xlink:href="#m7d14bfa839" y="333.36"/>
      </g>
     </g>
     <g id="text_2">
      <!-- −2 -->
      <g transform="translate(93.200701 347.958438)scale(0.1 -0.1)">
       <defs>
        <path d="M 1228 531 
L 3431 531 
L 3431 0 
L 469 0 
L 469 531 
Q 828 903 1448 1529 
Q 2069 2156 2228 2338 
Q 2531 2678 2651 2914 
Q 2772 3150 2772 3378 
Q 2772 3750 2511 3984 
Q 2250 4219 1831 4219 
Q 1534 4219 1204 4116 
Q 875 4013 500 3803 
L 500 4441 
Q 881 4594 1212 4672 
Q 1544 4750 1819 4750 
Q 2544 4750 2975 4387 
Q 3406 4025 3406 3419 
Q 3406 3131 3298 2873 
Q 3191 2616 2906 2266 
Q 2828 2175 2409 1742 
Q 1991 1309 1228 531 
z
" id="DejaVuSans-32" transform="scale(0.015625)"/>
       </defs>
       <use xlink:href="#DejaVuSans-2212"/>
       <use x="83.789062" xlink:href="#DejaVuSans-32"/>
      </g>
     </g>
    </g>
    <g id="xtick_3">
     <g id="line2d_3">
      <g>
       <use style="stroke:#000000;stroke-width:0.8;" x="142.214907" xlink:href="#m7d14bfa839" y="333.36"/>
      </g>
     </g>
     <g id="text_3">
      <!-- −1 -->
      <g transform="translate(134.843813 347.958438)scale(0.1 -0.1)">
       <defs>
        <path d="M 794 531 
L 1825 531 
L 1825 4091 
L 703 3866 
L 703 4441 
L 1819 4666 
L 2450 4666 
L 2450 531 
L 3481 531 
L 3481 0 
L 794 0 
L 794 531 
z
" id="DejaVuSans-31" transform="scale(0.015625)"/>
       </defs>
       <use xlink:href="#DejaVuSans-2212"/>
       <use x="83.789062" xlink:href="#DejaVuSans-31"/>
      </g>
     </g>
    </g>
    <g id="xtick_4">
     <g id="line2d_4">
      <g>
       <use style="stroke:#000000;stroke-width:0.8;" x="183.85802" xlink:href="#m7d14bfa839" y="333.36"/>
      </g>
     </g>
     <g id="text_4">
      <!-- 0 -->
      <g transform="translate(180.67677 347.958438)scale(0.1 -0.1)">
       <defs>
        <path d="M 2034 4250 
Q 1547 4250 1301 3770 
Q 1056 3291 1056 2328 
Q 1056 1369 1301 889 
Q 1547 409 2034 409 
Q 2525 409 2770 889 
Q 3016 1369 3016 2328 
Q 3016 3291 2770 3770 
Q 2525 4250 2034 4250 
z
M 2034 4750 
Q 2819 4750 3233 4129 
Q 3647 3509 3647 2328 
Q 3647 1150 3233 529 
Q 2819 -91 2034 -91 
Q 1250 -91 836 529 
Q 422 1150 422 2328 
Q 422 3509 836 4129 
Q 1250 4750 2034 4750 
z
" id="DejaVuSans-30" transform="scale(0.015625)"/>
       </defs>
       <use xlink:href="#DejaVuSans-30"/>
      </g>
     </g>
    </g>
    <g id="xtick_5">
     <g id="line2d_5">
      <g>
       <use style="stroke:#000000;stroke-width:0.8;" x="225.501132" xlink:href="#m7d14bfa839" y="333.36"/>
      </g>
     </g>
     <g id="text_5">
      <!-- 1 -->
      <g transform="translate(222.319882 347.958438)scale(0.1 -0.1)">
       <use xlink:href="#DejaVuSans-31"/>
      </g>
     </g>
    </g>
    <g id="xtick_6">
     <g id="line2d_6">
      <g>
       <use style="stroke:#000000;stroke-width:0.8;" x="267.144244" xlink:href="#m7d14bfa839" y="333.36"/>
      </g>
     </g>
     <g id="text_6">
      <!-- 2 -->
      <g transform="translate(263.962994 347.958438)scale(0.1 -0.1)">
       <use xlink:href="#DejaVuSans-32"/>
      </g>
     </g>
    </g>
    <g id="xtick_7">
     <g id="line2d_7">
      <g>
       <use style="stroke:#000000;stroke-width:0.8;" x="308.787357" xlink:href="#m7d14bfa839" y="333.36"/>
      </g>
     </g>
     <g id="text_7">
      <!-- 3 -->
      <g transform="translate(305.606107 347.958438)scale(0.1 -0.1)">
       <use xlink:href="#DejaVuSans-33"/>
      </g>
     </g>
    </g>
    <g id="xtick_8">
     <g id="line2d_8">
      <g>
       <use style="stroke:#000000;stroke-width:0.8;" x="350.430469" xlink:href="#m7d14bfa839" y="333.36"/>
      </g>
     </g>
     <g id="text_8">
      <!-- 4 -->
      <g transform="translate(347.249219 347.958438)scale(0.1 -0.1)">
       <defs>
        <path d="M 2419 4116 
L 825 1625 
L 2419 1625 
L 2419 4116 
z
M 2253 4666 
L 3047 4666 
L 3047 1625 
L 3713 1625 
L 3713 1100 
L 3047 1100 
L 3047 0 
L 2419 0 
L 2419 1100 
L 313 1100 
L 313 1709 
L 2253 4666 
z
" id="DejaVuSans-34" transform="scale(0.015625)"/>
       </defs>
       <use xlink:href="#DejaVuSans-34"/>
      </g>
     </g>
    </g>
   </g>
   <g id="matplotlib.axis_2">
    <g id="ytick_1">
     <g id="line2d_9">
      <defs>
       <path d="M 0 0 
L -3.5 0 
" id="m501a754a16" style="stroke:#000000;stroke-width:0.8;"/>
      </defs>
      <g>
       <use style="stroke:#000000;stroke-width:0.8;" x="28.942188" xlink:href="#m501a754a16" y="331.224793"/>
      </g>
     </g>
     <g id="text_9">
      <!-- −2 -->
      <g transform="translate(7.2 335.024012)scale(0.1 -0.1)">
       <use xlink:href="#DejaVuSans-2212"/>
       <use x="83.789062" xlink:href="#DejaVuSans-32"/>
      </g>
     </g>
    </g>
    <g id="ytick_2">
     <g id="line2d_10">
      <g>
       <use style="stroke:#000000;stroke-width:0.8;" x="28.942188" xlink:href="#m501a754a16" y="289.581681"/>
      </g>
     </g>
     <g id="text_10">
      <!-- −1 -->
      <g transform="translate(7.2 293.3809)scale(0.1 -0.1)">
       <use xlink:href="#DejaVuSans-2212"/>
       <use x="83.789062" xlink:href="#DejaVuSans-31"/>
      </g>
     </g>
    </g>
    <g id="ytick_3">
     <g id="line2d_11">
      <g>
       <use style="stroke:#000000;stroke-width:0.8;" x="28.942188" xlink:href="#m501a754a16" y="247.938569"/>
      </g>
     </g>
     <g id="text_11">
      <!-- 0 -->
      <g transform="translate(15.579688 251.737787)scale(0.1 -0.1)">
       <use xlink:href="#DejaVuSans-30"/>
      </g>
     </g>
    </g>
    <g id="ytick_4">
     <g id="line2d_12">
      <g>
       <use style="stroke:#000000;stroke-width:0.8;" x="28.942188" xlink:href="#m501a754a16" y="206.295456"/>
      </g>
     </g>
     <g id="text_12">
      <!-- 1 -->
      <g transform="translate(15.579688 210.094675)scale(0.1 -0.1)">
       <use xlink:href="#DejaVuSans-31"/>
      </g>
     </g>
    </g>
    <g id="ytick_5">
     <g id="line2d_13">
      <g>
       <use style="stroke:#000000;stroke-width:0.8;" x="28.942188" xlink:href="#m501a754a16" y="164.652344"/>
      </g>
     </g>
     <g id="text_13">
      <!-- 2 -->
      <g transform="translate(15.579688 168.451563)scale(0.1 -0.1)">
       <use xlink:href="#DejaVuSans-32"/>
      </g>
     </g>
    </g>
    <g id="ytick_6">
     <g id="line2d_14">
      <g>
       <use style="stroke:#000000;stroke-width:0.8;" x="28.942188" xlink:href="#m501a754a16" y="123.009231"/>
      </g>
     </g>
     <g id="text_14">
      <!-- 3 -->
      <g transform="translate(15.579688 126.80845)scale(0.1 -0.1)">
       <use xlink:href="#DejaVuSans-33"/>
      </g>
     </g>
    </g>
    <g id="ytick_7">
     <g id="line2d_15">
      <g>
       <use style="stroke:#000000;stroke-width:0.8;" x="28.942188" xlink:href="#m501a754a16" y="81.366119"/>
      </g>
     </g>
     <g id="text_15">
      <!-- 4 -->
      <g transform="translate(15.579688 85.165338)scale(0.1 -0.1)">
       <use xlink:href="#DejaVuSans-34"/>
      </g>
     </g>
    </g>
    <g id="ytick_8">
     <g id="line2d_16">
      <g>
       <use style="stroke:#000000;stroke-width:0.8;" x="28.942188" xlink:href="#m501a754a16" y="39.723007"/>
      </g>
     </g>
     <g id="text_16">
      <!-- 5 -->
      <g transform="translate(15.579688 43.522225)scale(0.1 -0.1)">
       <defs>
        <path d="M 691 4666 
L 3169 4666 
L 3169 4134 
L 1269 4134 
L 1269 2991 
Q 1406 3038 1543 3061 
Q 1681 3084 1819 3084 
Q 2600 3084 3056 2656 
Q 3513 2228 3513 1497 
Q 3513 744 3044 326 
Q 2575 -91 1722 -91 
Q 1428 -91 1123 -41 
Q 819 9 494 109 
L 494 744 
Q 775 591 1075 516 
Q 1375 441 1709 441 
Q 2250 441 2565 725 
Q 2881 1009 2881 1497 
Q 2881 1984 2565 2268 
Q 2250 2553 1709 2553 
Q 1456 2553 1204 2497 
Q 953 2441 691 2322 
L 691 4666 
z
" id="DejaVuSans-35" transform="scale(0.015625)"/>
       </defs>
       <use xlink:href="#DejaVuSans-35"/>
      </g>
     </g>
    </g>
   </g>
   <g id="patch_3">
    <path d="M 28.942188 333.36 
L 28.942188 7.2 
" style="fill:none;stroke:#000000;stroke-linecap:square;stroke-linejoin:miter;stroke-width:0.8;"/>
   </g>
   <g id="patch_4">
    <path d="M 363.742188 333.36 
L 363.742188 7.2 
" style="fill:none;stroke:#000000;stroke-linecap:square;stroke-linejoin:miter;stroke-width:0.8;"/>
   </g>
   <g id="patch_5">
    <path d="M 28.942187 333.36 
L 363.742188 333.36 
" style="fill:none;stroke:#000000;stroke-linecap:square;stroke-linejoin:miter;stroke-width:0.8;"/>
   </g>
   <g id="patch_6">
    <path d="M 28.942187 7.2 
L 363.742188 7.2 
" style="fill:none;stroke:#000000;stroke-linecap:square;stroke-linejoin:miter;stroke-width:0.8;"/>
   </g>
  </g>
 </g>
 <defs>
  <clipPath id="pb4a9f2cfc5">
   <rect height="326.16" width="334.8" x="28.942188" y="7.2"/>
  </clipPath>
 </defs>
</svg>