<?xml version="1.0" encoding="utf-8" standalone="no"?>
<!DOCTYPE svg PUBLIC "-//W3C//DTD SVG 1.1//EN"
  "http://www.w3.org/Graphics/SVG/1.1/DTD/svg11.dtd">
<!-- Created with matplotlib (https://matplotlib.org/) -->
<svg height="248.518125pt" version="1.1" viewBox="0 0 370.942187 248.518125" width="370.942187pt" xmlns="http://www.w3.org/2000/svg" xmlns:xlink="http://www.w3.org/1999/xlink">
 <metadata>
  <rdf:RDF xmlns:cc="http://creativecommons.org/ns#" xmlns:dc="http://purl.org/dc/elements/1.1/" xmlns:rdf="http://www.w3.org/1999/02/22-rdf-syntax-ns#">
   <cc:Work>
    <dc:type rdf:resource="http://purl.org/dc/dcmitype/StillImage"/>
    <dc:date>2021-07-26T11:17:15.416219</dc:date>
    <dc:format>image/svg+xml</dc:format>
    <dc:creator>
     <cc:Agent>
      <dc:title>Matplotlib v3.3.4, https://matplotlib.org/</dc:title>
     </cc:Agent>
    </dc:creator>
   </cc:Work>
  </rdf:RDF>
 </metadata>
 <defs>
  <style type="text/css">*{stroke-linecap:butt;stroke-linejoin:round;}</style>
 </defs>
 <g id="figure_1">
  <g id="patch_1">
   <path d="M 0 248.518125 
L 370.942187 248.518125 
L 370.942187 0 
L 0 0 
z
" style="fill:none;"/>
  </g>
  <g id="axes_1">
   <g id="patch_2">
    <path d="M 28.942188 224.64 
L 363.742188 224.64 
L 363.742188 7.2 
L 28.942188 7.2 
z
" style="fill:#ffffff;"/>
   </g>
   <g id="PathCollection_1">
    <defs>
     <path d="M 0 3 
C 0.795609 3 1.55874 2.683901 2.12132 2.12132 
C 2.683901 1.55874 3 0.795609 3 -0 
C 3 -0.795609 2.683901 -1.55874 2.12132 -2.12132 
C 1.55874 -2.683901 0.795609 -3 0 -3 
C -0.795609 -3 -1.55874 -2.683901 -2.12132 -2.12132 
C -2.683901 -1.55874 -3 -0.795609 -3 0 
C -3 0.795609 -2.683901 1.55874 -2.12132 2.12132 
C -1.55874 2.683901 -0.795609 3 0 3 
z
" id="C0_0_33849e5830"/>
    </defs>
    <g clip-path="url(#p5993423804)">
     <use style="fill:#e41a1c;stroke:#e41a1c;" x="140.488878" xlink:href="#C0_0_33849e5830" y="150.2232"/>
    </g>
    <g clip-path="url(#p5993423804)">
     <use style="fill:#999999;stroke:#999999;" x="237.479498" xlink:href="#C0_0_33849e5830" y="116.827678"/>
    </g>
    <g clip-path="url(#p5993423804)">
     <use style="fill:#e41a1c;stroke:#e41a1c;" x="108.039971" xlink:href="#C0_0_33849e5830" y="131.010237"/>
    </g>
    <g clip-path="url(#p5993423804)">
     <use style="fill:#e41a1c;stroke:#e41a1c;" x="60.261789" xlink:href="#C0_0_33849e5830" y="111.729377"/>
    </g>
    <g clip-path="url(#p5993423804)">
     <use style="fill:#999999;stroke:#999999;" x="215.11142" xlink:href="#C0_0_33849e5830" y="172.645588"/>
    </g>
    <g clip-path="url(#p5993423804)">
     <use style="fill:#e41a1c;stroke:#e41a1c;" x="44.160369" xlink:href="#C0_0_33849e5830" y="90.279571"/>
    </g>
    <g clip-path="url(#p5993423804)">
     <use style="fill:#999999;stroke:#999999;" x="282.820885" xlink:href="#C0_0_33849e5830" y="181.839554"/>
    </g>
    <g clip-path="url(#p5993423804)">
     <use style="fill:#999999;stroke:#999999;" x="132.28928" xlink:href="#C0_0_33849e5830" y="17.083636"/>
    </g>
    <g clip-path="url(#p5993423804)">
     <use style="fill:#999999;stroke:#999999;" x="165.805933" xlink:href="#C0_0_33849e5830" y="36.785578"/>
    </g>
    <g clip-path="url(#p5993423804)">
     <use style="fill:#e41a1c;stroke:#e41a1c;" x="154.114137" xlink:href="#C0_0_33849e5830" y="178.273637"/>
    </g>
    <g clip-path="url(#p5993423804)">
     <use style="fill:#e41a1c;stroke:#e41a1c;" x="121.079383" xlink:href="#C0_0_33849e5830" y="179.512814"/>
    </g>
    <g clip-path="url(#p5993423804)">
     <use style="fill:#999999;stroke:#999999;" x="230.841234" xlink:href="#C0_0_33849e5830" y="124.607312"/>
    </g>
    <g clip-path="url(#p5993423804)">
     <use style="fill:#e41a1c;stroke:#e41a1c;" x="138.249799" xlink:href="#C0_0_33849e5830" y="143.702298"/>
    </g>
    <g clip-path="url(#p5993423804)">
     <use style="fill:#999999;stroke:#999999;" x="168.244061" xlink:href="#C0_0_33849e5830" y="100.673042"/>
    </g>
    <g clip-path="url(#p5993423804)">
     <use style="fill:#e41a1c;stroke:#e41a1c;" x="107.794169" xlink:href="#C0_0_33849e5830" y="141.862167"/>
    </g>
    <g clip-path="url(#p5993423804)">
     <use style="fill:#999999;stroke:#999999;" x="234.55331" xlink:href="#C0_0_33849e5830" y="155.628229"/>
    </g>
    <g clip-path="url(#p5993423804)">
     <use style="fill:#999999;stroke:#999999;" x="280.960351" xlink:href="#C0_0_33849e5830" y="184.151261"/>
    </g>
    <g clip-path="url(#p5993423804)">
     <use style="fill:#999999;stroke:#999999;" x="344.77305" xlink:href="#C0_0_33849e5830" y="106.379458"/>
    </g>
    <g clip-path="url(#p5993423804)">
     <use style="fill:#e41a1c;stroke:#e41a1c;" x="130.169449" xlink:href="#C0_0_33849e5830" y="155.129816"/>
    </g>
    <g clip-path="url(#p5993423804)">
     <use style="fill:#e41a1c;stroke:#e41a1c;" x="133.282833" xlink:href="#C0_0_33849e5830" y="161.397125"/>
    </g>
    <g clip-path="url(#p5993423804)">
     <use style="fill:#e41a1c;stroke:#e41a1c;" x="166.239067" xlink:href="#C0_0_33849e5830" y="161.917796"/>
    </g>
    <g clip-path="url(#p5993423804)">
     <use style="fill:#999999;stroke:#999999;" x="229.701212" xlink:href="#C0_0_33849e5830" y="151.011242"/>
    </g>
    <g clip-path="url(#p5993423804)">
     <use style="fill:#e41a1c;stroke:#e41a1c;" x="114.721336" xlink:href="#C0_0_33849e5830" y="126.921321"/>
    </g>
    <g clip-path="url(#p5993423804)">
     <use style="fill:#999999;stroke:#999999;" x="234.432591" xlink:href="#C0_0_33849e5830" y="173.537249"/>
    </g>
    <g clip-path="url(#p5993423804)">
     <use style="fill:#999999;stroke:#999999;" x="257.078838" xlink:href="#C0_0_33849e5830" y="181.592719"/>
    </g>
    <g clip-path="url(#p5993423804)">
     <use style="fill:#999999;stroke:#999999;" x="208.506953" xlink:href="#C0_0_33849e5830" y="99.422333"/>
    </g>
    <g clip-path="url(#p5993423804)">
     <use style="fill:#999999;stroke:#999999;" x="224.913156" xlink:href="#C0_0_33849e5830" y="163.770952"/>
    </g>
    <g clip-path="url(#p5993423804)">
     <use style="fill:#e41a1c;stroke:#e41a1c;" x="160.774631" xlink:href="#C0_0_33849e5830" y="192.264546"/>
    </g>
    <g clip-path="url(#p5993423804)">
     <use style="fill:#e41a1c;stroke:#e41a1c;" x="94.933727" xlink:href="#C0_0_33849e5830" y="112.494582"/>
    </g>
    <g clip-path="url(#p5993423804)">
     <use style="fill:#999999;stroke:#999999;" x="304.0687" xlink:href="#C0_0_33849e5830" y="137.246005"/>
    </g>
    <g clip-path="url(#p5993423804)">
     <use style="fill:#e41a1c;stroke:#e41a1c;" x="142.823216" xlink:href="#C0_0_33849e5830" y="152.294388"/>
    </g>
    <g clip-path="url(#p5993423804)">
     <use style="fill:#e41a1c;stroke:#e41a1c;" x="94.029223" xlink:href="#C0_0_33849e5830" y="156.736426"/>
    </g>
    <g clip-path="url(#p5993423804)">
     <use style="fill:#999999;stroke:#999999;" x="297.211095" xlink:href="#C0_0_33849e5830" y="163.181109"/>
    </g>
    <g clip-path="url(#p5993423804)">
     <use style="fill:#e41a1c;stroke:#e41a1c;" x="167.729089" xlink:href="#C0_0_33849e5830" y="173.937173"/>
    </g>
    <g clip-path="url(#p5993423804)">
     <use style="fill:#e41a1c;stroke:#e41a1c;" x="110.419982" xlink:href="#C0_0_33849e5830" y="160.106704"/>
    </g>
    <g clip-path="url(#p5993423804)">
     <use style="fill:#e41a1c;stroke:#e41a1c;" x="178.22806" xlink:href="#C0_0_33849e5830" y="179.372532"/>
    </g>
    <g clip-path="url(#p5993423804)">
     <use style="fill:#e41a1c;stroke:#e41a1c;" x="142.454883" xlink:href="#C0_0_33849e5830" y="181.009915"/>
    </g>
    <g clip-path="url(#p5993423804)">
     <use style="fill:#e41a1c;stroke:#e41a1c;" x="75.035796" xlink:href="#C0_0_33849e5830" y="115.43541"/>
    </g>
    <g clip-path="url(#p5993423804)">
     <use style="fill:#999999;stroke:#999999;" x="293.38029" xlink:href="#C0_0_33849e5830" y="160.211853"/>
    </g>
    <g clip-path="url(#p5993423804)">
     <use style="fill:#999999;stroke:#999999;" x="258.178517" xlink:href="#C0_0_33849e5830" y="117.716464"/>
    </g>
    <g clip-path="url(#p5993423804)">
     <use style="fill:#999999;stroke:#999999;" x="167.165152" xlink:href="#C0_0_33849e5830" y="99.020351"/>
    </g>
    <g clip-path="url(#p5993423804)">
     <use style="fill:#e41a1c;stroke:#e41a1c;" x="102.052951" xlink:href="#C0_0_33849e5830" y="131.080376"/>
    </g>
    <g clip-path="url(#p5993423804)">
     <use style="fill:#999999;stroke:#999999;" x="252.645304" xlink:href="#C0_0_33849e5830" y="125.472768"/>
    </g>
    <g clip-path="url(#p5993423804)">
     <use style="fill:#e41a1c;stroke:#e41a1c;" x="159.42648" xlink:href="#C0_0_33849e5830" y="195.243298"/>
    </g>
    <g clip-path="url(#p5993423804)">
     <use style="fill:#e41a1c;stroke:#e41a1c;" x="107.228177" xlink:href="#C0_0_33849e5830" y="144.720747"/>
    </g>
    <g clip-path="url(#p5993423804)">
     <use style="fill:#999999;stroke:#999999;" x="182.727164" xlink:href="#C0_0_33849e5830" y="135.883986"/>
    </g>
    <g clip-path="url(#p5993423804)">
     <use style="fill:#e41a1c;stroke:#e41a1c;" x="119.870478" xlink:href="#C0_0_33849e5830" y="151.841551"/>
    </g>
    <g clip-path="url(#p5993423804)">
     <use style="fill:#999999;stroke:#999999;" x="260.595483" xlink:href="#C0_0_33849e5830" y="98.261659"/>
    </g>
    <g clip-path="url(#p5993423804)">
     <use style="fill:#999999;stroke:#999999;" x="195.603999" xlink:href="#C0_0_33849e5830" y="114.526294"/>
    </g>
    <g clip-path="url(#p5993423804)">
     <use style="fill:#999999;stroke:#999999;" x="237.303066" xlink:href="#C0_0_33849e5830" y="107.638762"/>
    </g>
    <g clip-path="url(#p5993423804)">
     <use style="fill:#999999;stroke:#999999;" x="253.273814" xlink:href="#C0_0_33849e5830" y="173.524736"/>
    </g>
    <g clip-path="url(#p5993423804)">
     <use style="fill:#999999;stroke:#999999;" x="256.687893" xlink:href="#C0_0_33849e5830" y="126.202695"/>
    </g>
    <g clip-path="url(#p5993423804)">
     <use style="fill:#999999;stroke:#999999;" x="234.691368" xlink:href="#C0_0_33849e5830" y="157.630631"/>
    </g>
    <g clip-path="url(#p5993423804)">
     <use style="fill:#999999;stroke:#999999;" x="267.541445" xlink:href="#C0_0_33849e5830" y="177.511006"/>
    </g>
    <g clip-path="url(#p5993423804)">
     <use style="fill:#e41a1c;stroke:#e41a1c;" x="126.120105" xlink:href="#C0_0_33849e5830" y="141.550283"/>
    </g>
    <g clip-path="url(#p5993423804)">
     <use style="fill:#e41a1c;stroke:#e41a1c;" x="144.659296" xlink:href="#C0_0_33849e5830" y="155.522646"/>
    </g>
    <g clip-path="url(#p5993423804)">
     <use style="fill:#e41a1c;stroke:#e41a1c;" x="135.441889" xlink:href="#C0_0_33849e5830" y="134.812677"/>
    </g>
    <g clip-path="url(#p5993423804)">
     <use style="fill:#e41a1c;stroke:#e41a1c;" x="108.317444" xlink:href="#C0_0_33849e5830" y="151.573823"/>
    </g>
    <g clip-path="url(#p5993423804)">
     <use style="fill:#e41a1c;stroke:#e41a1c;" x="95.504288" xlink:href="#C0_0_33849e5830" y="119.196326"/>
    </g>
    <g clip-path="url(#p5993423804)">
     <use style="fill:#999999;stroke:#999999;" x="218.758866" xlink:href="#C0_0_33849e5830" y="134.421961"/>
    </g>
    <g clip-path="url(#p5993423804)">
     <use style="fill:#e41a1c;stroke:#e41a1c;" x="117.651301" xlink:href="#C0_0_33849e5830" y="144.9028"/>
    </g>
    <g clip-path="url(#p5993423804)">
     <use style="fill:#999999;stroke:#999999;" x="143.395386" xlink:href="#C0_0_33849e5830" y="138.7826"/>
    </g>
    <g clip-path="url(#p5993423804)">
     <use style="fill:#e41a1c;stroke:#e41a1c;" x="80.781658" xlink:href="#C0_0_33849e5830" y="134.042385"/>
    </g>
    <g clip-path="url(#p5993423804)">
     <use style="fill:#999999;stroke:#999999;" x="121.214975" xlink:href="#C0_0_33849e5830" y="131.068175"/>
    </g>
    <g clip-path="url(#p5993423804)">
     <use style="fill:#999999;stroke:#999999;" x="323.667818" xlink:href="#C0_0_33849e5830" y="165.841524"/>
    </g>
    <g clip-path="url(#p5993423804)">
     <use style="fill:#999999;stroke:#999999;" x="222.985408" xlink:href="#C0_0_33849e5830" y="123.823774"/>
    </g>
    <g clip-path="url(#p5993423804)">
     <use style="fill:#999999;stroke:#999999;" x="222.687681" xlink:href="#C0_0_33849e5830" y="214.756364"/>
    </g>
    <g clip-path="url(#p5993423804)">
     <use style="fill:#e41a1c;stroke:#e41a1c;" x="91.669806" xlink:href="#C0_0_33849e5830" y="123.538523"/>
    </g>
    <g clip-path="url(#p5993423804)">
     <use style="fill:#e41a1c;stroke:#e41a1c;" x="124.583726" xlink:href="#C0_0_33849e5830" y="156.645442"/>
    </g>
    <g clip-path="url(#p5993423804)">
     <use style="fill:#e41a1c;stroke:#e41a1c;" x="104.24491" xlink:href="#C0_0_33849e5830" y="142.074953"/>
    </g>
    <g clip-path="url(#p5993423804)">
     <use style="fill:#999999;stroke:#999999;" x="237.328582" xlink:href="#C0_0_33849e5830" y="102.076511"/>
    </g>
    <g clip-path="url(#p5993423804)">
     <use style="fill:#999999;stroke:#999999;" x="269.303105" xlink:href="#C0_0_33849e5830" y="141.732779"/>
    </g>
    <g clip-path="url(#p5993423804)">
     <use style="fill:#e41a1c;stroke:#e41a1c;" x="139.507282" xlink:href="#C0_0_33849e5830" y="155.921209"/>
    </g>
    <g clip-path="url(#p5993423804)">
     <use style="fill:#e41a1c;stroke:#e41a1c;" x="116.643203" xlink:href="#C0_0_33849e5830" y="180.299851"/>
    </g>
    <g clip-path="url(#p5993423804)">
     <use style="fill:#e41a1c;stroke:#e41a1c;" x="117.89036" xlink:href="#C0_0_33849e5830" y="172.456439"/>
    </g>
    <g clip-path="url(#p5993423804)">
     <use style="fill:#e41a1c;stroke:#e41a1c;" x="122.285682" xlink:href="#C0_0_33849e5830" y="141.520744"/>
    </g>
    <g clip-path="url(#p5993423804)">
     <use style="fill:#e41a1c;stroke:#e41a1c;" x="114.441711" xlink:href="#C0_0_33849e5830" y="154.068407"/>
    </g>
    <g clip-path="url(#p5993423804)">
     <use style="fill:#e41a1c;stroke:#e41a1c;" x="74.822667" xlink:href="#C0_0_33849e5830" y="127.756978"/>
    </g>
    <g clip-path="url(#p5993423804)">
     <use style="fill:#999999;stroke:#999999;" x="265.743947" xlink:href="#C0_0_33849e5830" y="124.408752"/>
    </g>
    <g clip-path="url(#p5993423804)">
     <use style="fill:#e41a1c;stroke:#e41a1c;" x="89.547223" xlink:href="#C0_0_33849e5830" y="144.336038"/>
    </g>
    <g clip-path="url(#p5993423804)">
     <use style="fill:#999999;stroke:#999999;" x="104.566546" xlink:href="#C0_0_33849e5830" y="95.629355"/>
    </g>
    <g clip-path="url(#p5993423804)">
     <use style="fill:#e41a1c;stroke:#e41a1c;" x="82.581332" xlink:href="#C0_0_33849e5830" y="122.71303"/>
    </g>
    <g clip-path="url(#p5993423804)">
     <use style="fill:#999999;stroke:#999999;" x="319.167928" xlink:href="#C0_0_33849e5830" y="158.304237"/>
    </g>
    <g clip-path="url(#p5993423804)">
     <use style="fill:#e41a1c;stroke:#e41a1c;" x="74.425527" xlink:href="#C0_0_33849e5830" y="131.305206"/>
    </g>
    <g clip-path="url(#p5993423804)">
     <use style="fill:#e41a1c;stroke:#e41a1c;" x="80.047469" xlink:href="#C0_0_33849e5830" y="124.351175"/>
    </g>
    <g clip-path="url(#p5993423804)">
     <use style="fill:#e41a1c;stroke:#e41a1c;" x="53.957359" xlink:href="#C0_0_33849e5830" y="101.903172"/>
    </g>
    <g clip-path="url(#p5993423804)">
     <use style="fill:#e41a1c;stroke:#e41a1c;" x="123.092579" xlink:href="#C0_0_33849e5830" y="147.173078"/>
    </g>
    <g clip-path="url(#p5993423804)">
     <use style="fill:#999999;stroke:#999999;" x="247.30546" xlink:href="#C0_0_33849e5830" y="168.520978"/>
    </g>
    <g clip-path="url(#p5993423804)">
     <use style="fill:#999999;stroke:#999999;" x="276.943615" xlink:href="#C0_0_33849e5830" y="143.759071"/>
    </g>
    <g clip-path="url(#p5993423804)">
     <use style="fill:#e41a1c;stroke:#e41a1c;" x="112.105796" xlink:href="#C0_0_33849e5830" y="151.746712"/>
    </g>
    <g clip-path="url(#p5993423804)">
     <use style="fill:#999999;stroke:#999999;" x="196.566267" xlink:href="#C0_0_33849e5830" y="117.672664"/>
    </g>
    <g clip-path="url(#p5993423804)">
     <use style="fill:#999999;stroke:#999999;" x="253.031152" xlink:href="#C0_0_33849e5830" y="120.321738"/>
    </g>
    <g clip-path="url(#p5993423804)">
     <use style="fill:#e41a1c;stroke:#e41a1c;" x="112.22321" xlink:href="#C0_0_33849e5830" y="146.784739"/>
    </g>
    <g clip-path="url(#p5993423804)">
     <use style="fill:#e41a1c;stroke:#e41a1c;" x="108.559963" xlink:href="#C0_0_33849e5830" y="144.81083"/>
    </g>
    <g clip-path="url(#p5993423804)">
     <use style="fill:#e41a1c;stroke:#e41a1c;" x="85.400616" xlink:href="#C0_0_33849e5830" y="120.807634"/>
    </g>
    <g clip-path="url(#p5993423804)">
     <use style="fill:#999999;stroke:#999999;" x="300.332159" xlink:href="#C0_0_33849e5830" y="158.695833"/>
    </g>
    <g clip-path="url(#p5993423804)">
     <use style="fill:#999999;stroke:#999999;" x="285.516411" xlink:href="#C0_0_33849e5830" y="128.383809"/>
    </g>
    <g clip-path="url(#p5993423804)">
     <use style="fill:#999999;stroke:#999999;" x="244.195977" xlink:href="#C0_0_33849e5830" y="110.117528"/>
    </g>
    <g clip-path="url(#p5993423804)">
     <use style="fill:#999999;stroke:#999999;" x="348.524006" xlink:href="#C0_0_33849e5830" y="143.436117"/>
    </g>
    <g clip-path="url(#p5993423804)">
     <use style="fill:#999999;stroke:#999999;" x="196.342811" xlink:href="#C0_0_33849e5830" y="83.864378"/>
    </g>
   </g>
   <g id="matplotlib.axis_1">
    <g id="xtick_1">
     <g id="line2d_1">
      <defs>
       <path d="M 0 0 
L 0 3.5 
" id="mc912f951f6" style="stroke:#000000;stroke-width:0.8;"/>
      </defs>
      <g>
       <use style="stroke:#000000;stroke-width:0.8;" x="41.947841" xlink:href="#mc912f951f6" y="224.64"/>
      </g>
     </g>
     <g id="text_1">
      <!-- −2 -->
      <g transform="translate(34.576748 239.238437)scale(0.1 -0.1)">
       <defs>
        <path d="M 10.59375 35.5 
L 73.1875 35.5 
L 73.1875 27.203125 
L 10.59375 27.203125 
z
" id="DejaVuSans-8722"/>
        <path d="M 19.1875 8.296875 
L 53.609375 8.296875 
L 53.609375 0 
L 7.328125 0 
L 7.328125 8.296875 
Q 12.9375 14.109375 22.625 23.890625 
Q 32.328125 33.6875 34.8125 36.53125 
Q 39.546875 41.84375 41.421875 45.53125 
Q 43.3125 49.21875 43.3125 52.78125 
Q 43.3125 58.59375 39.234375 62.25 
Q 35.15625 65.921875 28.609375 65.921875 
Q 23.96875 65.921875 18.8125 64.3125 
Q 13.671875 62.703125 7.8125 59.421875 
L 7.8125 69.390625 
Q 13.765625 71.78125 18.9375 73 
Q 24.125 74.21875 28.421875 74.21875 
Q 39.75 74.21875 46.484375 68.546875 
Q 53.21875 62.890625 53.21875 53.421875 
Q 53.21875 48.921875 51.53125 44.890625 
Q 49.859375 40.875 45.40625 35.40625 
Q 44.1875 33.984375 37.640625 27.21875 
Q 31.109375 20.453125 19.1875 8.296875 
z
" id="DejaVuSans-50"/>
       </defs>
       <use xlink:href="#DejaVuSans-8722"/>
       <use x="83.789062" xlink:href="#DejaVuSans-50"/>
      </g>
     </g>
    </g>
    <g id="xtick_2">
     <g id="line2d_2">
      <g>
       <use style="stroke:#000000;stroke-width:0.8;" x="109.081962" xlink:href="#mc912f951f6" y="224.64"/>
      </g>
     </g>
     <g id="text_2">
      <!-- −1 -->
      <g transform="translate(101.710868 239.238437)scale(0.1 -0.1)">
       <defs>
        <path d="M 12.40625 8.296875 
L 28.515625 8.296875 
L 28.515625 63.921875 
L 10.984375 60.40625 
L 10.984375 69.390625 
L 28.421875 72.90625 
L 38.28125 72.90625 
L 38.28125 8.296875 
L 54.390625 8.296875 
L 54.390625 0 
L 12.40625 0 
z
" id="DejaVuSans-49"/>
       </defs>
       <use xlink:href="#DejaVuSans-8722"/>
       <use x="83.789062" xlink:href="#DejaVuSans-49"/>
      </g>
     </g>
    </g>
    <g id="xtick_3">
     <g id="line2d_3">
      <g>
       <use style="stroke:#000000;stroke-width:0.8;" x="176.216083" xlink:href="#mc912f951f6" y="224.64"/>
      </g>
     </g>
     <g id="text_3">
      <!-- 0 -->
      <g transform="translate(173.034833 239.238437)scale(0.1 -0.1)">
       <defs>
        <path d="M 31.78125 66.40625 
Q 24.171875 66.40625 20.328125 58.90625 
Q 16.5 51.421875 16.5 36.375 
Q 16.5 21.390625 20.328125 13.890625 
Q 24.171875 6.390625 31.78125 6.390625 
Q 39.453125 6.390625 43.28125 13.890625 
Q 47.125 21.390625 47.125 36.375 
Q 47.125 51.421875 43.28125 58.90625 
Q 39.453125 66.40625 31.78125 66.40625 
z
M 31.78125 74.21875 
Q 44.046875 74.21875 50.515625 64.515625 
Q 56.984375 54.828125 56.984375 36.375 
Q 56.984375 17.96875 50.515625 8.265625 
Q 44.046875 -1.421875 31.78125 -1.421875 
Q 19.53125 -1.421875 13.0625 8.265625 
Q 6.59375 17.96875 6.59375 36.375 
Q 6.59375 54.828125 13.0625 64.515625 
Q 19.53125 74.21875 31.78125 74.21875 
z
" id="DejaVuSans-48"/>
       </defs>
       <use xlink:href="#DejaVuSans-48"/>
      </g>
     </g>
    </g>
    <g id="xtick_4">
     <g id="line2d_4">
      <g>
       <use style="stroke:#000000;stroke-width:0.8;" x="243.350204" xlink:href="#mc912f951f6" y="224.64"/>
      </g>
     </g>
     <g id="text_4">
      <!-- 1 -->
      <g transform="translate(240.168954 239.238437)scale(0.1 -0.1)">
       <use xlink:href="#DejaVuSans-49"/>
      </g>
     </g>
    </g>
    <g id="xtick_5">
     <g id="line2d_5">
      <g>
       <use style="stroke:#000000;stroke-width:0.8;" x="310.484324" xlink:href="#mc912f951f6" y="224.64"/>
      </g>
     </g>
     <g id="text_5">
      <!-- 2 -->
      <g transform="translate(307.303074 239.238437)scale(0.1 -0.1)">
       <use xlink:href="#DejaVuSans-50"/>
      </g>
     </g>
    </g>
   </g>
   <g id="matplotlib.axis_2">
    <g id="ytick_1">
     <g id="line2d_6">
      <defs>
       <path d="M 0 0 
L -3.5 0 
" id="md2209ea171" style="stroke:#000000;stroke-width:0.8;"/>
      </defs>
      <g>
       <use style="stroke:#000000;stroke-width:0.8;" x="28.942188" xlink:href="#md2209ea171" y="223.216529"/>
      </g>
     </g>
     <g id="text_6">
      <!-- −2 -->
      <g transform="translate(7.2 227.015748)scale(0.1 -0.1)">
       <use xlink:href="#DejaVuSans-8722"/>
       <use x="83.789062" xlink:href="#DejaVuSans-50"/>
      </g>
     </g>
    </g>
    <g id="ytick_2">
     <g id="line2d_7">
      <g>
       <use style="stroke:#000000;stroke-width:0.8;" x="28.942188" xlink:href="#md2209ea171" y="195.454454"/>
      </g>
     </g>
     <g id="text_7">
      <!-- −1 -->
      <g transform="translate(7.2 199.253673)scale(0.1 -0.1)">
       <use xlink:href="#DejaVuSans-8722"/>
       <use x="83.789062" xlink:href="#DejaVuSans-49"/>
      </g>
     </g>
    </g>
    <g id="ytick_3">
     <g id="line2d_8">
      <g>
       <use style="stroke:#000000;stroke-width:0.8;" x="28.942188" xlink:href="#md2209ea171" y="167.692379"/>
      </g>
     </g>
     <g id="text_8">
      <!-- 0 -->
      <g transform="translate(15.579688 171.491598)scale(0.1 -0.1)">
       <use xlink:href="#DejaVuSans-48"/>
      </g>
     </g>
    </g>
    <g id="ytick_4">
     <g id="line2d_9">
      <g>
       <use style="stroke:#000000;stroke-width:0.8;" x="28.942188" xlink:href="#md2209ea171" y="139.930304"/>
      </g>
     </g>
     <g id="text_9">
      <!-- 1 -->
      <g transform="translate(15.579688 143.729523)scale(0.1 -0.1)">
       <use xlink:href="#DejaVuSans-49"/>
      </g>
     </g>
    </g>
    <g id="ytick_5">
     <g id="line2d_10">
      <g>
       <use style="stroke:#000000;stroke-width:0.8;" x="28.942188" xlink:href="#md2209ea171" y="112.168229"/>
      </g>
     </g>
     <g id="text_10">
      <!-- 2 -->
      <g transform="translate(15.579688 115.967448)scale(0.1 -0.1)">
       <use xlink:href="#DejaVuSans-50"/>
      </g>
     </g>
    </g>
    <g id="ytick_6">
     <g id="line2d_11">
      <g>
       <use style="stroke:#000000;stroke-width:0.8;" x="28.942188" xlink:href="#md2209ea171" y="84.406154"/>
      </g>
     </g>
     <g id="text_11">
      <!-- 3 -->
      <g transform="translate(15.579688 88.205373)scale(0.1 -0.1)">
       <defs>
        <path d="M 40.578125 39.3125 
Q 47.65625 37.796875 51.625 33 
Q 55.609375 28.21875 55.609375 21.1875 
Q 55.609375 10.40625 48.1875 4.484375 
Q 40.765625 -1.421875 27.09375 -1.421875 
Q 22.515625 -1.421875 17.65625 -0.515625 
Q 12.796875 0.390625 7.625 2.203125 
L 7.625 11.71875 
Q 11.71875 9.328125 16.59375 8.109375 
Q 21.484375 6.890625 26.8125 6.890625 
Q 36.078125 6.890625 40.9375 10.546875 
Q 45.796875 14.203125 45.796875 21.1875 
Q 45.796875 27.640625 41.28125 31.265625 
Q 36.765625 34.90625 28.71875 34.90625 
L 20.21875 34.90625 
L 20.21875 43.015625 
L 29.109375 43.015625 
Q 36.375 43.015625 40.234375 45.921875 
Q 44.09375 48.828125 44.09375 54.296875 
Q 44.09375 59.90625 40.109375 62.90625 
Q 36.140625 65.921875 28.71875 65.921875 
Q 24.65625 65.921875 20.015625 65.03125 
Q 15.375 64.15625 9.8125 62.3125 
L 9.8125 71.09375 
Q 15.4375 72.65625 20.34375 73.4375 
Q 25.25 74.21875 29.59375 74.21875 
Q 40.828125 74.21875 47.359375 69.109375 
Q 53.90625 64.015625 53.90625 55.328125 
Q 53.90625 49.265625 50.4375 45.09375 
Q 46.96875 40.921875 40.578125 39.3125 
z
" id="DejaVuSans-51"/>
       </defs>
       <use xlink:href="#DejaVuSans-51"/>
      </g>
     </g>
    </g>
    <g id="ytick_7">
     <g id="line2d_12">
      <g>
       <use style="stroke:#000000;stroke-width:0.8;" x="28.942188" xlink:href="#md2209ea171" y="56.644079"/>
      </g>
     </g>
     <g id="text_12">
      <!-- 4 -->
      <g transform="translate(15.579688 60.443298)scale(0.1 -0.1)">
       <defs>
        <path d="M 37.796875 64.3125 
L 12.890625 25.390625 
L 37.796875 25.390625 
z
M 35.203125 72.90625 
L 47.609375 72.90625 
L 47.609375 25.390625 
L 58.015625 25.390625 
L 58.015625 17.1875 
L 47.609375 17.1875 
L 47.609375 0 
L 37.796875 0 
L 37.796875 17.1875 
L 4.890625 17.1875 
L 4.890625 26.703125 
z
" id="DejaVuSans-52"/>
       </defs>
       <use xlink:href="#DejaVuSans-52"/>
      </g>
     </g>
    </g>
    <g id="ytick_8">
     <g id="line2d_13">
      <g>
       <use style="stroke:#000000;stroke-width:0.8;" x="28.942188" xlink:href="#md2209ea171" y="28.882004"/>
      </g>
     </g>
     <g id="text_13">
      <!-- 5 -->
      <g transform="translate(15.579688 32.681223)scale(0.1 -0.1)">
       <defs>
        <path d="M 10.796875 72.90625 
L 49.515625 72.90625 
L 49.515625 64.59375 
L 19.828125 64.59375 
L 19.828125 46.734375 
Q 21.96875 47.46875 24.109375 47.828125 
Q 26.265625 48.1875 28.421875 48.1875 
Q 40.625 48.1875 47.75 41.5 
Q 54.890625 34.8125 54.890625 23.390625 
Q 54.890625 11.625 47.5625 5.09375 
Q 40.234375 -1.421875 26.90625 -1.421875 
Q 22.3125 -1.421875 17.546875 -0.640625 
Q 12.796875 0.140625 7.71875 1.703125 
L 7.71875 11.625 
Q 12.109375 9.234375 16.796875 8.0625 
Q 21.484375 6.890625 26.703125 6.890625 
Q 35.15625 6.890625 40.078125 11.328125 
Q 45.015625 15.765625 45.015625 23.390625 
Q 45.015625 31 40.078125 35.4375 
Q 35.15625 39.890625 26.703125 39.890625 
Q 22.75 39.890625 18.8125 39.015625 
Q 14.890625 38.140625 10.796875 36.28125 
z
" id="DejaVuSans-53"/>
       </defs>
       <use xlink:href="#DejaVuSans-53"/>
      </g>
     </g>
    </g>
   </g>
   <g id="patch_3">
    <path d="M 28.942188 224.64 
L 28.942188 7.2 
" style="fill:none;stroke:#000000;stroke-linecap:square;stroke-linejoin:miter;stroke-width:0.8;"/>
   </g>
   <g id="patch_4">
    <path d="M 363.742188 224.64 
L 363.742188 7.2 
" style="fill:none;stroke:#000000;stroke-linecap:square;stroke-linejoin:miter;stroke-width:0.8;"/>
   </g>
   <g id="patch_5">
    <path d="M 28.942187 224.64 
L 363.742188 224.64 
" style="fill:none;stroke:#000000;stroke-linecap:square;stroke-linejoin:miter;stroke-width:0.8;"/>
   </g>
   <g id="patch_6">
    <path d="M 28.942187 7.2 
L 363.742188 7.2 
" style="fill:none;stroke:#000000;stroke-linecap:square;stroke-linejoin:miter;stroke-width:0.8;"/>
   </g>
  </g>
 </g>
 <defs>
  <clipPath id="p5993423804">
   <rect height="217.44" width="334.8" x="28.942188" y="7.2"/>
  </clipPath>
 </defs>
</svg>
