<svg width="1088" height="260" xmlns="http://www.w3.org/2000/svg" xmlns:xlink="http://www.w3.org/1999/xlink" overflow="hidden"><defs><clipPath id="clip0"><rect x="94" y="72" width="1088" height="260"/></clipPath></defs><g clip-path="url(#clip0)" transform="translate(-94 -72)"><rect x="247.5" y="233.5" width="157" height="77" stroke="#2F528F" stroke-width="1.33333" stroke-miterlimit="8" fill="#4472C4"/><text fill="#FFFFFF" font-family="Calibri,Calibri_MSFontService,sans-serif" font-weight="400" font-size="24" transform="translate(276.012 279)">Computer</text><path d="M114.5 225.25 220 225.25 220 212.5 245.5 238 220 263.5 220 250.75 114.5 250.75Z" stroke="#000000" stroke-width="1.33333" stroke-miterlimit="8" fill="#FFFFFF" fill-rule="evenodd"/><text font-family="Calibri,Calibri_MSFontService,sans-serif" font-weight="400" font-size="24" transform="translate(147.15 245)">Input</text><path d="M114.5 282.25 220 282.25 220 269.5 245.5 295 220 320.5 220 307.75 114.5 307.75Z" stroke="#000000" stroke-width="1.33333" stroke-miterlimit="8" fill="#FFFFFF" fill-rule="evenodd"/><text font-family="Calibri,Calibri_MSFontService,sans-serif" font-weight="400" font-size="24" transform="translate(124.402 302)">Algorithm</text><path d="M404.5 257.25 510 257.25 510 244.5 535.5 270 510 295.5 510 282.75 404.5 282.75Z" stroke="#000000" stroke-width="1.33333" stroke-miterlimit="8" fill="#FFFFFF" fill-rule="evenodd"/><text font-family="Calibri,Calibri_MSFontService,sans-serif" font-weight="400" font-size="24" transform="translate(427.878 277)">Output</text><rect x="892.5" y="230.5" width="157" height="77" stroke="#2F528F" stroke-width="1.33333" stroke-miterlimit="8" fill="#4472C4"/><text fill="#FFFFFF" font-family="Calibri,Calibri_MSFontService,sans-serif" font-weight="400" font-size="24" transform="translate(921.898 276)">Computer</text><path d="M702.5 221.5 865.5 221.5 865.5 208.5 891.5 234.5 865.5 260.5 865.5 247.5 702.5 247.5Z" stroke="#000000" stroke-width="1.33333" stroke-miterlimit="8" fill="#FFFFFF" fill-rule="evenodd"/><text font-family="Calibri,Calibri_MSFontService,sans-serif" font-weight="400" font-size="24" transform="translate(764.191 242)">Input</text><path d="M702.5 290.25 866 290.25 866 277.5 891.5 303 866 328.5 866 315.75 702.5 315.75Z" stroke="#000000" stroke-width="1.33333" stroke-miterlimit="8" fill="#FFFFFF" fill-rule="evenodd"/><text font-family="Calibri,Calibri_MSFontService,sans-serif" font-weight="400" font-size="24" transform="translate(717.117 310)">Desired<tspan font-size="24" x="79.8534" y="0">output</tspan></text><path d="M1049.5 254.25 1156 254.25 1156 241.5 1181.5 267 1156 292.5 1156 279.75 1049.5 279.75Z" stroke="#000000" stroke-width="1.33333" stroke-miterlimit="8" fill="#FFFFFF" fill-rule="evenodd"/><text font-family="Calibri,Calibri_MSFontService,sans-serif" font-weight="400" font-size="24" transform="translate(1060.26 274)">Algorithm<tspan font-size="48" x="-936.736" y="-142">Traditional programs</tspan><tspan font-size="48" x="-349.176" y="-141">Machine learning</tspan></text></g></svg>