<svg width="794" height="170" xmlns="http://www.w3.org/2000/svg" xmlns:xlink="http://www.w3.org/1999/xlink" overflow="hidden"><defs><clipPath id="clip0"><rect x="388" y="466" width="794" height="170"/></clipPath></defs><g clip-path="url(#clip0)" transform="translate(-388 -466)"><rect x="603.5" y="530.5" width="158" height="77" stroke="#2F528F" stroke-width="1.33333" stroke-miterlimit="8" fill="#4472C4"/><text fill="#FFFFFF" font-family="Calibri,Calibri_MSFontService,sans-serif" font-weight="400" font-size="24" transform="translate(632.966 576)">Computer</text><path d="M428.5 522.25 578 522.25 578 509.5 603.5 535 578 560.5 578 547.75 428.5 547.75Z" stroke="#000000" stroke-width="1.33333" stroke-miterlimit="8" fill="#FFFFFF" fill-rule="evenodd"/><text font-family="Calibri,Calibri_MSFontService,sans-serif" font-weight="400" font-size="24" transform="translate(446.265 542)">Training data</text><path d="M389.5 594.25 578 594.25 578 581.5 603.5 607 578 632.5 578 619.75 389.5 619.75Z" stroke="#000000" stroke-width="1.33333" stroke-miterlimit="8" fill="#FFFFFF" fill-rule="evenodd"/><text font-family="Calibri,Calibri_MSFontService,sans-serif" font-weight="400" font-size="24" transform="translate(416.304 614)">Desired<tspan x="79.8533" y="0">output</tspan></text><path d="M761.5 554.25 867 554.25 867 541.5 892.5 567 867 592.5 867 579.75 761.5 579.75Z" stroke="#000000" stroke-width="1.33333" stroke-miterlimit="8" fill="#FFFFFF" fill-rule="evenodd"/><text font-family="Calibri,Calibri_MSFontService,sans-serif" font-weight="400" font-size="24" transform="translate(771.332 574)">Algorithm</text><rect x="892.5" y="490.5" width="157" height="77" stroke="#2F528F" stroke-width="1.33333" stroke-miterlimit="8" fill="#4472C4"/><text fill="#FFFFFF" font-family="Calibri,Calibri_MSFontService,sans-serif" font-weight="400" font-size="24" transform="translate(921.898 536)">Computer</text><path d="M761.5 481.25 867 481.25 867 468.5 892.5 494 867 519.5 867 506.75 761.5 506.75Z" stroke="#000000" stroke-width="1.33333" stroke-miterlimit="8" fill="#FFFFFF" fill-rule="evenodd"/><text font-family="Calibri,Calibri_MSFontService,sans-serif" font-weight="400" font-size="24" transform="translate(773.479 501)">New data</text><path d="M1049.5 513.25 1156 513.25 1156 500.5 1181.5 526 1156 551.5 1156 538.75 1049.5 538.75Z" stroke="#000000" stroke-width="1.33333" stroke-miterlimit="8" fill="#FFFFFF" fill-rule="evenodd"/><text font-family="Calibri,Calibri_MSFontService,sans-serif" font-weight="400" font-size="24" transform="translate(1078.64 533)">Result</text></g></svg>