<svg width="1088" height="260" xmlns="http://www.w3.org/2000/svg" xmlns:xlink="http://www.w3.org/1999/xlink" overflow="hidden"><defs><clipPath id="clip0"><rect x="94" y="72" width="1088" height="260"/></clipPath></defs><g clip-path="url(#clip0)" transform="translate(-94 -72)"><rect x="247.5" y="233.5" width="157" height="77" stroke="#2F528F" stroke-width="1.33333" stroke-miterlimit="8" fill="#4472C4"/><text fill="#FFFFFF" font-family="Calibri,Calibri_MSFontService,sans-serif" font-weight="400" font-size="24" transform="translate(276.012 279)">Computer</text><path d="M115.5 225.25 222 225.25 222 212.5 247.5 238 222 263.5 222 250.75 115.5 250.75Z" stroke="#000000" stroke-width="1.33333" stroke-miterlimit="8" fill="#FFFFFF" fill-rule="evenodd"/><text font-family="Calibri,Calibri_MSFontService,sans-serif" font-weight="400" font-size="24" transform="translate(148.193 245)">Input</text><path d="M115.5 282.25 221 282.25 221 269.5 246.5 295 221 320.5 221 307.75 115.5 307.75Z" stroke="#000000" stroke-width="1.33333" stroke-miterlimit="8" fill="#FFFFFF" fill-rule="evenodd"/><text font-family="Calibri,Calibri_MSFontService,sans-serif" font-weight="400" font-size="24" transform="translate(125.446 302)">Algorithm</text><path d="M404.5 257.25 510 257.25 510 244.5 535.5 270 510 295.5 510 282.75 404.5 282.75Z" stroke="#000000" stroke-width="1.33333" stroke-miterlimit="8" fill="#FFFFFF" fill-rule="evenodd"/><text font-family="Calibri,Calibri_MSFontService,sans-serif" font-weight="400" font-size="24" transform="translate(432.754 277)">Result</text><rect x="892.5" y="230.5" width="157" height="77" stroke="#2F528F" stroke-width="1.33333" stroke-miterlimit="8" fill="#4472C4"/><text fill="#FFFFFF" font-family="Calibri,Calibri_MSFontService,sans-serif" font-weight="400" font-size="24" transform="translate(921.898 276)">Computer</text><path d="M761.5 221.5 866.5 221.5 866.5 208.5 892.5 234.5 866.5 260.5 866.5 247.5 761.5 247.5Z" stroke="#000000" stroke-width="1.33333" stroke-miterlimit="8" fill="#FFFFFF" fill-rule="evenodd"/><text font-family="Calibri,Calibri_MSFontService,sans-serif" font-weight="400" font-size="24" transform="translate(794.079 242)">Input</text><path d="M678.5 290.25 867 290.25 867 277.5 892.5 303 867 328.5 867 315.75 678.5 315.75Z" stroke="#000000" stroke-width="1.33333" stroke-miterlimit="8" fill="#FFFFFF" fill-rule="evenodd"/><text font-family="Calibri,Calibri_MSFontService,sans-serif" font-weight="400" font-size="24" transform="translate(705.401 310)">Desired<tspan x="79.8533" y="0">output</tspan></text><path d="M1049.5 254.25 1156 254.25 1156 241.5 1181.5 267 1156 292.5 1156 279.75 1049.5 279.75Z" stroke="#000000" stroke-width="1.33333" stroke-miterlimit="8" fill="#FFFFFF" fill-rule="evenodd"/><text font-family="Calibri,Calibri_MSFontService,sans-serif" font-weight="400" font-size="24" transform="translate(1060.26 274)">Algorithm<tspan font-size="48" x="-936.736" y="-142">Traditional programs</tspan><tspan font-size="48" x="-349.176" y="-141">Machine learning</tspan></text></g></svg>