<svg width="1280" height="720" xmlns="http://www.w3.org/2000/svg" xmlns:xlink="http://www.w3.org/1999/xlink" overflow="hidden"><g><rect x="0" y="0" width="1280" height="720" fill="#FFFFFF"/><rect x="7" y="40" width="221" height="164" stroke="#000000" stroke-width="4" stroke-linejoin="round" stroke-miterlimit="10" fill="none"/><text font-family="Calibri,Calibri_MSFontService,sans-serif" font-weight="400" font-size="32" transform="translate(16.3523 74)">Question:</text><text fill="#262626" font-family="Arial,Arial_MSFontService,sans-serif" font-weight="400" font-size="32" transform="translate(16.3523 114)">When did the</text><text fill="#262626" font-family="Arial,Arial_MSFontService,sans-serif" font-weight="400" font-size="32" transform="translate(16.3523 152)">ECHR enter</text><text fill="#262626" font-family="Arial,Arial_MSFontService,sans-serif" font-weight="400" font-size="32" transform="translate(16.3523 189)">into force?</text><path d="M0.0127809-1.99996 90.7681-1.41998 90.7425 2.57994-0.0127809 1.99996ZM88.7937-5.43268 100.755 0.643884 88.717 6.56708Z" fill="#44546A" transform="matrix(1 0 0 -1 239 107.644)"/><path d="M944 187.206C1085.62 206.756 1085.62 167.656 1227.23 167.656L1227.23 66.0312 944 66.0312ZM967.335 66.0312 967.335 52.8562 1248.63 52.8562 1248.63 155.118C1237.94 155.118 1227.23 155.827 1227.23 155.827L1227.23 66.0312ZM989.268 52.8562 989.268 40 1273 40 1273 141.943C1260.81 141.943 1248.63 142.475 1248.63 142.475L1248.63 52.8562Z" fill="#FFFFFF" fill-rule="evenodd"/><path d="M944 66.0312 1227.23 66.0312 1227.23 167.656C1085.62 167.656 1085.62 206.756 944 187.206ZM967.335 66.0312 967.335 52.8562 1248.63 52.8562 1248.63 155.118C1237.94 155.118 1227.23 155.827 1227.23 155.827M989.268 52.8562 989.268 40 1273 40 1273 141.943C1260.81 141.943 1248.63 142.475 1248.63 142.475" stroke="#000000" stroke-width="4" stroke-miterlimit="8" fill="none" fill-rule="evenodd"/><text font-family="Calibri,Calibri_MSFontService,sans-serif" font-weight="400" font-size="32" transform="translate(1011.75 137)">Documents</text><path d="M353 63.5C353 50.5213 386.802 40 428.5 40 470.197 40 504 50.5213 504 63.5L504 157.5C504 170.479 470.197 181 428.5 181 386.802 181 353 170.479 353 157.5Z" fill="#FFFFFF" fill-rule="evenodd"/><path d="M504 63.5C504 76.4787 470.197 87 428.5 87 386.802 87 353 76.4787 353 63.5" stroke="#000000" stroke-width="4" stroke-miterlimit="8" fill="none" fill-rule="evenodd"/><path d="M353 63.5C353 50.5213 386.802 40 428.5 40 470.197 40 504 50.5213 504 63.5L504 157.5C504 170.479 470.197 181 428.5 181 386.802 181 353 170.479 353 157.5Z" stroke="#000000" stroke-width="4" stroke-miterlimit="8" fill="none" fill-rule="evenodd"/><text font-family="Calibri,Calibri_MSFontService,sans-serif" font-weight="400" font-size="32" transform="translate(385.121 114)">Search</text><text font-family="Calibri,Calibri_MSFontService,sans-serif" font-weight="400" font-size="32" transform="translate(393.468 152)">index</text><path d="M1.65789e-06-2 116.651-1.9999 116.651 2.0001-1.65789e-06 2ZM114.651-5.9999 126.651 0.000104987 114.651 6.00009Z" transform="matrix(-1 0 0 1 637.651 107)"/><path d="M340 421.524C426.954 443.374 426.954 399.674 513.898 399.674L513.898 286.094 340 286.094ZM354.327 286.094 354.327 271.369 527.037 271.369 527.037 385.662C520.472 385.662 513.898 386.453 513.898 386.453L513.898 286.094ZM367.794 271.369 367.794 257 542 257 542 370.937C534.519 370.937 527.037 371.53 527.037 371.53L527.037 271.369Z" fill="#FFFFFF" fill-rule="evenodd"/><path d="M340 286.094 513.898 286.094 513.898 399.674C426.954 399.674 426.954 443.374 340 421.524ZM354.327 286.094 354.327 271.369 527.037 271.369 527.037 385.662C520.472 385.662 513.898 386.453 513.898 386.453M367.794 271.369 367.794 257 542 257 542 370.937C534.519 370.937 527.037 371.53 527.037 371.53" stroke="#000000" stroke-width="4" stroke-miterlimit="8" fill="none" fill-rule="evenodd"/><text font-family="Calibri,Calibri_MSFontService,sans-serif" font-weight="400" font-size="32" transform="translate(370.53 326)">Relevant</text><text font-family="Calibri,Calibri_MSFontService,sans-serif" font-weight="400" font-size="32" transform="translate(360.444 364)">document</text><text font-family="Calibri,Calibri_MSFontService,sans-serif" font-weight="400" font-size="32" transform="translate(393.544 403)">parts</text><path d="M431 193 431 237.237 427 237.237 427 193ZM435 235.237 429 247.237 423 235.237Z"/><rect x="349" y="511" width="151" height="129" stroke="#000000" stroke-width="4" stroke-miterlimit="8" fill="#FFFFFF"/><text font-family="Calibri,Calibri_MSFontService,sans-serif" font-weight="400" font-size="32" transform="translate(375.922 586)">Prompt</text><path d="M118.667 225.895 326.214 538.894 322.88 541.105 115.333 228.105ZM328.442 535.017 330.073 548.334 318.441 541.649Z"/><path d="M426 436 426 492.951 422 492.951 422 436ZM430 490.951 424 502.951 418 490.951Z"/><path d="M649 531.5C649 519.626 682.802 510 724.5 510 766.198 510 800 519.626 800 531.5L800 617.5C800 629.374 766.198 639 724.5 639 682.802 639 649 629.374 649 617.5Z" fill="#FFFFFF" fill-rule="evenodd"/><path d="M800 531.5C800 543.374 766.198 553 724.5 553 682.802 553 649 543.374 649 531.5" stroke="#000000" stroke-width="4" stroke-miterlimit="8" fill="none" fill-rule="evenodd"/><path d="M649 531.5C649 519.626 682.802 510 724.5 510 766.198 510 800 519.626 800 531.5L800 617.5C800 629.374 766.198 639 724.5 639 682.802 639 649 629.374 649 617.5Z" stroke="#000000" stroke-width="4" stroke-miterlimit="8" fill="none" fill-rule="evenodd"/><text font-family="Calibri,Calibri_MSFontService,sans-serif" font-weight="400" font-size="32" transform="translate(696.938 596)">LLM</text><path d="M511 576 630.408 576 630.408 580 511 580ZM628.408 572 640.408 578 628.408 584Z"/><path d="M944 486 1273 486 1273 641.577C1108.5 641.577 1108.5 700.855 944 667.174Z" stroke="#000000" stroke-width="4" stroke-miterlimit="8" fill="#FFFFFF" fill-rule="evenodd"/><text font-family="Calibri,Calibri_MSFontService,sans-serif" font-weight="400" font-size="32" transform="translate(989.482 537)">Answer: The ECHR</text><text font-family="Calibri,Calibri_MSFontService,sans-serif" font-weight="400" font-size="32" transform="translate(971.242 575)">entered into force on</text><text font-family="Calibri,Calibri_MSFontService,sans-serif" font-weight="400" font-size="32" transform="translate(985.489 614)">September 3, 1953</text><path d="M812 576 925.891 576 925.891 580 812 580ZM923.891 572 935.891 578 923.891 584Z"/><rect x="649" y="46" width="151" height="129" stroke="#000000" stroke-width="4" stroke-miterlimit="8" fill="#FFFFFF"/><text font-family="Calibri,Calibri_MSFontService,sans-serif" font-weight="400" font-size="32" transform="translate(658.668 121)">Vectorizer</text><path d="M1.77339e-06-2 108.403-1.9999 108.403 2.0001-1.77339e-06 2ZM106.403-5.99991 118.403 0.000104987 106.403 6.00009Z" transform="matrix(-1 0 0 1 927.403 107)"/></g></svg>